<svg width="127" height="85" viewBox="0 0 127 85" fill="none" xmlns="http://www.w3.org/2000/svg">
<path d="M19.824 53L13.104 40.52H12.096V53H2.688V19.16H17.52C20.24 19.16 22.544 19.64 24.432 20.6C26.32 21.528 27.744 22.824 28.704 24.488C29.664 26.12 30.144 27.96 30.144 30.008C30.144 32.312 29.504 34.344 28.224 36.104C26.976 37.832 25.136 39.064 22.704 39.8L30.336 53H19.824ZM12.096 34.088H16.752C18.032 34.088 18.992 33.784 19.632 33.176C20.272 32.568 20.592 31.688 20.592 30.536C20.592 29.448 20.256 28.6 19.584 27.992C18.944 27.352 18 27.032 16.752 27.032H12.096V34.088ZM43.8304 26.696V32.216H54.6304V39.368H43.8304V45.464H56.0704V53H34.4224V19.16H56.0704V26.696H43.8304ZM80.7353 53L70.1273 38.168V53H60.7193V19.16H70.1273V33.752L80.6393 19.16H91.4873L79.0553 35.576L92.1113 53H80.7353ZM126.315 19.16L114.411 42.248V53H104.955V42.248L93.0514 19.16H103.803L109.755 32.216L115.707 19.16H126.315Z" fill="#BD815A"/>
<path d="M8.292 65.454C9.66 65.454 10.842 65.712 11.838 66.228C12.846 66.732 13.614 67.458 14.142 68.406C14.682 69.354 14.952 70.47 14.952 71.754C14.952 73.038 14.682 74.154 14.142 75.102C13.614 76.038 12.846 76.758 11.838 77.262C10.842 77.754 9.66 78 8.292 78H4.386V65.454H8.292ZM8.292 76.65C9.912 76.65 11.148 76.224 12 75.372C12.852 74.508 13.278 73.302 13.278 71.754C13.278 70.194 12.846 68.976 11.982 68.1C11.13 67.224 9.9 66.786 8.292 66.786H6.024V76.65H8.292ZM29.5506 66.786V70.98H34.1226V72.33H29.5506V76.65H34.6626V78H27.9126V65.436H34.6626V66.786H29.5506ZM51.9191 78.126C51.0911 78.126 50.3471 77.982 49.6871 77.694C49.0391 77.394 48.5291 76.986 48.1571 76.47C47.7851 75.942 47.5931 75.336 47.5811 74.652H49.3271C49.3871 75.24 49.6271 75.738 50.0471 76.146C50.4791 76.542 51.1031 76.74 51.9191 76.74C52.6991 76.74 53.3111 76.548 53.7551 76.164C54.2111 75.768 54.4391 75.264 54.4391 74.652C54.4391 74.172 54.3071 73.782 54.0431 73.482C53.7791 73.182 53.4491 72.954 53.0531 72.798C52.6571 72.642 52.1231 72.474 51.4511 72.294C50.6231 72.078 49.9571 71.862 49.4531 71.646C48.9611 71.43 48.5351 71.094 48.1751 70.638C47.8271 70.17 47.6531 69.546 47.6531 68.766C47.6531 68.082 47.8271 67.476 48.1751 66.948C48.5231 66.42 49.0091 66.012 49.6331 65.724C50.2691 65.436 50.9951 65.292 51.8111 65.292C52.9871 65.292 53.9471 65.586 54.6911 66.174C55.4471 66.762 55.8731 67.542 55.9691 68.514H54.1691C54.1091 68.034 53.8571 67.614 53.4131 67.254C52.9691 66.882 52.3811 66.696 51.6491 66.696C50.9651 66.696 50.4071 66.876 49.9751 67.236C49.5431 67.584 49.3271 68.076 49.3271 68.712C49.3271 69.168 49.4531 69.54 49.7051 69.828C49.9691 70.116 50.2871 70.338 50.6591 70.494C51.0431 70.638 51.5771 70.806 52.2611 70.998C53.0891 71.226 53.7551 71.454 54.2591 71.682C54.7631 71.898 55.1951 72.24 55.5551 72.708C55.9151 73.164 56.0951 73.788 56.0951 74.58C56.0951 75.192 55.9331 75.768 55.6091 76.308C55.2851 76.848 54.8051 77.286 54.1691 77.622C53.5331 77.958 52.7831 78.126 51.9191 78.126ZM70.9435 65.454V78H69.3055V65.454H70.9435ZM94.0392 69.09C93.6912 68.358 93.1872 67.794 92.5272 67.398C91.8672 66.99 91.0992 66.786 90.2232 66.786C89.3472 66.786 88.5552 66.99 87.8472 67.398C87.1512 67.794 86.5992 68.37 86.1912 69.126C85.7952 69.87 85.5972 70.734 85.5972 71.718C85.5972 72.702 85.7952 73.566 86.1912 74.31C86.5992 75.054 87.1512 75.63 87.8472 76.038C88.5552 76.434 89.3472 76.632 90.2232 76.632C91.4472 76.632 92.4552 76.266 93.2472 75.534C94.0392 74.802 94.5012 73.812 94.6332 72.564H89.6292V71.232H96.3792V72.492C96.2832 73.524 95.9592 74.472 95.4072 75.336C94.8552 76.188 94.1292 76.866 93.2292 77.37C92.3292 77.862 91.3272 78.108 90.2232 78.108C89.0592 78.108 87.9972 77.838 87.0372 77.298C86.0772 76.746 85.3152 75.984 84.7512 75.012C84.1992 74.04 83.9232 72.942 83.9232 71.718C83.9232 70.494 84.1992 69.396 84.7512 68.424C85.3152 67.44 86.0772 66.678 87.0372 66.138C87.9972 65.586 89.0592 65.31 90.2232 65.31C91.5552 65.31 92.7312 65.64 93.7512 66.3C94.7832 66.96 95.5332 67.89 96.0012 69.09H94.0392ZM119.209 78H117.571L110.983 68.01V78H109.345V65.436H110.983L117.571 75.408V65.436H119.209V78Z" fill="black"/>
</svg>
